name C:\Users\u0101727\Documents\MyRepositories\predictivesimulations\OpenSimModel\subject1\EMG\EMG_gait_25.mot
datacolumns 25
datarows 9
range 0.00100000 0.00900000
endheader
time	HamL_r	TA_r	PerL_r	GL_r	HamM_r	Sol_r	VL_r	VM_r	PerB_l	TA_l	PerL_l	GL_l	GM_l	Sol_l	VL_l	VM_l	AddL_l	RF_l	TFL_l	GluMed_l	HamL_l	HamM_l	GluMed_r	RF_r	
          0.00100000	          0.00100000	          0.00100000	          0.00996729	          0.00104736	          0.00569804	          0.00100000	          0.00100000	          0.00100000	          0.00112410	          0.02102460	          0.00840515	          0.00151544	          0.00302387	          0.00302074	          0.00100000	          0.00797315	          0.00375843	          0.00100000	          0.00100000	          0.00100000	          0.00902269	          0.00100000	          0.00100000	          0.00253939	
          0.00200000	          0.00100000	          0.00100000	          0.01094035	          0.00119265	          0.00602149	          0.00100000	          0.00100000	          0.00100000	          0.00145480	          0.02329849	          0.00872600	          0.00190194	          0.00342958	          0.00328584	          0.00100000	          0.00870258	          0.00413635	          0.00100000	          0.00100000	          0.00100000	          0.00937110	          0.00172087	          0.00100000	          0.00271597	
          0.00300000	          0.00100000	          0.00100000	          0.01194556	          0.00133767	          0.00634097	          0.00100000	          0.00100000	          0.00100000	          0.00178234	          0.02557127	          0.00905416	          0.00228590	          0.00383171	          0.00355256	          0.00100000	          0.00943973	          0.00452562	          0.00100000	          0.00100000	          0.00100000	          0.00972691	          0.00323879	          0.00100000	          0.00289206	
          0.00400000	          0.00100000	          0.00100000	          0.01298210	          0.00148192	          0.00665479	          0.00100000	          0.00100000	          0.00100000	          0.00210588	          0.02783644	          0.00938889	          0.00266582	          0.00422885	          0.00381993	          0.00100000	          0.01018260	          0.00492581	          0.00100000	          0.00100000	          0.00100000	          0.01008928	          0.00474255	          0.00100000	          0.00306696	
          0.00500000	          0.00100000	          0.00100000	          0.01404917	          0.00162490	          0.00696138	          0.00100000	          0.00100000	          0.00100000	          0.00242461	          0.03008722	          0.00972935	          0.00304027	          0.00461955	          0.00408695	          0.00100000	          0.01092946	          0.00533645	          0.00120724	          0.00100000	          0.00100000	          0.01045726	          0.00622633	          0.00100000	          0.00323999	
          0.00600000	          0.00100000	          0.00100000	          0.01514591	          0.00176609	          0.00725932	          0.00100000	          0.00100000	          0.00100000	          0.00273770	          0.03231656	          0.01007459	          0.00340793	          0.00500238	          0.00435271	          0.00100000	          0.01167869	          0.00575712	          0.00165388	          0.00100000	          0.00100000	          0.01082981	          0.00768566	          0.00100000	          0.00341047	
          0.00700000	          0.00100000	          0.00100000	          0.01627136	          0.00190498	          0.00754722	          0.00328215	          0.00108192	          0.00100000	          0.00304435	          0.03451725	          0.01042354	          0.00376766	          0.00537591	          0.00461637	          0.00126325	          0.01242861	          0.00618735	          0.00209046	          0.00100000	          0.00100000	          0.01120582	          0.00911719	          0.00153407	          0.00357772	
          0.00800000	          0.00129384	          0.00100000	          0.01742445	          0.00204108	          0.00782378	          0.00701676	          0.00144398	          0.00100000	          0.00334375	          0.03668213	          0.01077506	          0.00411854	          0.00573874	          0.00487720	          0.00212891	          0.01317750	          0.00662670	          0.00251595	          0.00100000	          0.00100000	          0.01158413	          0.01051820	          0.00212103	          0.00374111	
          0.00900000	          0.00158180	          0.00100000	          0.01860397	          0.00217393	          0.00808771	          0.01065077	          0.00179685	          0.00100000	          0.00363516	          0.03880415	          0.01112783	          0.00445979	          0.00608954	          0.00513449	          0.00297787	          0.01392366	          0.00707470	          0.00292951	          0.00100000	          0.00100000	          0.01196356	          0.01188649	          0.00269767	          0.00390005	
